<?xml version="1.0" encoding="UTF-8" standalone="no"?>
<!DOCTYPE svg PUBLIC "-//W3C//DTD SVG 1.1//EN"
 "http://www.w3.org/Graphics/SVG/1.1/DTD/svg11.dtd">
<!-- Generated by graphviz version 2.40.1 (20161225.0304)
 -->
<!-- Title: list Pages: 1 -->
<svg width="2026pt" height="700pt"
 viewBox="0.00 0.00 2025.74 699.60" xmlns="http://www.w3.org/2000/svg" xmlns:xlink="http://www.w3.org/1999/xlink">
<g id="graph0" class="graph" transform="scale(1 1) rotate(0) translate(4 695.6)">
<title>list</title>
<polygon fill="#ffffff" stroke="transparent" points="-4,4 -4,-695.6 2021.7356,-695.6 2021.7356,4 -4,4"/>
<text text-anchor="middle" x="1008.8678" y="-7" font-family="Arial" font-size="10.00" fill="#000000">MonitorControl</text>
<!-- i -->
<g id="node1" class="node">
<title>i</title>
<ellipse fill="#000000" stroke="#000000" cx="7" cy="-354" rx="7" ry="7"/>
<text text-anchor="middle" x="7" y="-353.7" font-family="Times,serif" font-size="1.00" fill="#000000">i</text>
</g>
<!-- idle -->
<g id="node2" class="node">
<title>idle</title>
<path fill="#40e0d0" stroke="#000000" stroke-width="2" d="M146.2101,-372C146.2101,-372 62.9299,-372 62.9299,-372 56.9299,-372 50.9299,-366 50.9299,-360 50.9299,-360 50.9299,-348 50.9299,-348 50.9299,-342 56.9299,-336 62.9299,-336 62.9299,-336 146.2101,-336 146.2101,-336 152.2101,-336 158.2101,-342 158.2101,-348 158.2101,-348 158.2101,-360 158.2101,-360 158.2101,-366 152.2101,-372 146.2101,-372"/>
<text text-anchor="middle" x="104.57" y="-357" font-family="Arial" font-size="10.00" fill="#000000">System Idle</text>
<text text-anchor="middle" x="104.57" y="-345" font-family="Arial" font-size="10.00" fill="#000000">entry / on_enter_idle</text>
</g>
<!-- i&#45;&gt;idle -->
<g id="edge1" class="edge">
<title>i&#45;&gt;idle</title>
<path fill="none" stroke="#0000ff" d="M14.017,-354C20.1725,-354 29.7961,-354 40.5133,-354"/>
<polygon fill="#0000ff" stroke="#0000ff" points="40.5949,-357.5001 50.5949,-354 40.5948,-350.5001 40.5949,-357.5001"/>
</g>
<!-- initialising -->
<g id="node3" class="node">
<title>initialising</title>
<path fill="#ffffff" stroke="#000000" d="M259.475,-414C259.475,-414 223.6968,-414 223.6968,-414 217.6968,-414 211.6968,-408 211.6968,-402 211.6968,-402 211.6968,-390 211.6968,-390 211.6968,-384 217.6968,-378 223.6968,-378 223.6968,-378 259.475,-378 259.475,-378 265.475,-378 271.475,-384 271.475,-390 271.475,-390 271.475,-402 271.475,-402 271.475,-408 265.475,-414 259.475,-414"/>
<text text-anchor="middle" x="241.5859" y="-393" font-family="Arial" font-size="10.00" fill="#000000">Initialising</text>
</g>
<!-- idle&#45;&gt;initialising -->
<g id="edge2" class="edge">
<title>idle&#45;&gt;initialising</title>
<path fill="none" stroke="#0000ff" d="M158.3291,-370.479C172.9287,-374.9543 188.4666,-379.7171 202.1169,-383.9014"/>
<polygon fill="#0000ff" stroke="#0000ff" points="201.0958,-387.2491 211.6825,-386.8336 203.1474,-380.5565 201.0958,-387.2491"/>
<text text-anchor="middle" x="184.8907" y="-384.7" font-family="Arial" font-size="9.00" fill="#000000">start</text>
</g>
<!-- error -->
<g id="node4" class="node">
<title>error</title>
<path fill="#ffffff" stroke="#000000" d="M451.5613,-360C451.5613,-360 363.1825,-360 363.1825,-360 357.1825,-360 351.1825,-354 351.1825,-348 351.1825,-348 351.1825,-328 351.1825,-328 351.1825,-322 357.1825,-316 363.1825,-316 363.1825,-316 451.5613,-316 451.5613,-316 457.5613,-316 463.5613,-322 463.5613,-328 463.5613,-328 463.5613,-348 463.5613,-348 463.5613,-354 457.5613,-360 451.5613,-360"/>
<text text-anchor="middle" x="407.3719" y="-347" font-family="Arial" font-size="10.00" fill="#000000">Error</text>
<text text-anchor="middle" x="407.3719" y="-335" font-family="Arial" font-size="10.00" fill="#000000">entry / on_enter_error</text>
<text text-anchor="middle" x="407.3719" y="-323" font-family="Arial" font-size="10.00" fill="#000000">exit / on_exit_error</text>
</g>
<!-- idle&#45;&gt;error -->
<g id="edge3" class="edge">
<title>idle&#45;&gt;error</title>
<path fill="none" stroke="#0000ff" d="M158.2083,-350.5505C175.2847,-349.4907 194.254,-348.3534 211.6414,-347.4 254.4903,-345.0506 302.634,-342.7342 340.4515,-340.9888"/>
<polygon fill="#0000ff" stroke="#0000ff" points="341.0022,-344.4673 350.8311,-340.512 340.681,-337.4746 341.0022,-344.4673"/>
<text text-anchor="middle" x="241.5859" y="-361.5" font-family="Arial" font-size="9.00" fill="#000000">raise_error</text>
<text text-anchor="middle" x="241.5859" y="-350.7" font-family="Arial" font-size="9.00" fill="#000000">[is_error]</text>
</g>
<!-- initialising&#45;&gt;error -->
<g id="edge5" class="edge">
<title>initialising&#45;&gt;error</title>
<path fill="none" stroke="#0000ff" d="M271.6085,-385.4966C291.1315,-378.6665 317.3699,-369.4871 341.575,-361.019"/>
<polygon fill="#0000ff" stroke="#0000ff" points="342.803,-364.2974 351.0862,-357.6915 340.4914,-357.6901 342.803,-364.2974"/>
<text text-anchor="middle" x="311.2789" y="-392.5" font-family="Arial" font-size="9.00" fill="#000000">raise_error</text>
<text text-anchor="middle" x="311.2789" y="-381.7" font-family="Arial" font-size="9.00" fill="#000000">[is_error]</text>
</g>
<!-- monitoring -->
<g id="node5" class="node">
<title>monitoring</title>
<path fill="#ffffff" stroke="#000000" d="M669.5946,-363C669.5946,-363 555.0862,-363 555.0862,-363 549.0862,-363 543.0862,-357 543.0862,-351 543.0862,-351 543.0862,-331 543.0862,-331 543.0862,-325 549.0862,-319 555.0862,-319 555.0862,-319 669.5946,-319 669.5946,-319 675.5946,-319 681.5946,-325 681.5946,-331 681.5946,-331 681.5946,-351 681.5946,-351 681.5946,-357 675.5946,-363 669.5946,-363"/>
<text text-anchor="middle" x="612.3404" y="-350" font-family="Arial" font-size="10.00" fill="#000000">Monitoring</text>
<text text-anchor="middle" x="612.3404" y="-338" font-family="Arial" font-size="10.00" fill="#000000">entry / on_enter_monitoring</text>
<text text-anchor="middle" x="612.3404" y="-326" font-family="Arial" font-size="10.00" fill="#000000">monitor / on_monitor</text>
</g>
<!-- initialising&#45;&gt;monitoring -->
<g id="edge4" class="edge">
<title>initialising&#45;&gt;monitoring</title>
<path fill="none" stroke="#0000ff" d="M271.8027,-402.6172C314.9139,-410.9387 396.3186,-422.4894 463.7164,-408 499.9214,-400.2165 537.9411,-382.8877 566.4633,-367.8039"/>
<polygon fill="#0000ff" stroke="#0000ff" points="568.2334,-370.8259 575.3757,-363.0003 564.9122,-364.6639 568.2334,-370.8259"/>
<text text-anchor="middle" x="407.3719" y="-428.5" font-family="Arial" font-size="9.00" fill="#000000">monitor</text>
<text text-anchor="middle" x="407.3719" y="-417.7" font-family="Arial" font-size="9.00" fill="#000000">[!is_error]</text>
</g>
<!-- error&#45;&gt;error -->
<g id="edge23" class="edge">
<title>error&#45;&gt;error</title>
<path fill="none" stroke="#0000ff" d="M389.5872,-360.2124C388.1312,-369.7952 394.0594,-378 407.3719,-378 415.4842,-378 420.8544,-374.9533 423.4826,-370.4045"/>
<polygon fill="#0000ff" stroke="#0000ff" points="426.9896,-370.6474 425.1566,-360.2124 420.0821,-369.5129 426.9896,-370.6474"/>
<text text-anchor="middle" x="407.3719" y="-391.5" font-family="Arial" font-size="9.00" fill="#000000">raise_error</text>
<text text-anchor="middle" x="407.3719" y="-380.7" font-family="Arial" font-size="9.00" fill="#000000">[is_error]</text>
</g>
<!-- error&#45;&gt;monitoring -->
<g id="edge22" class="edge">
<title>error&#45;&gt;monitoring</title>
<path fill="none" stroke="#0000ff" d="M463.6648,-327.2702C469.7392,-326.4227 475.8442,-325.7018 481.7164,-325.2 500.9782,-323.5539 505.9591,-323.4683 525.2134,-325.2 527.7589,-325.4289 530.3412,-325.6948 532.9448,-325.9918"/>
<polygon fill="#0000ff" stroke="#0000ff" points="532.6981,-329.4885 543.0601,-327.2794 533.5822,-322.5446 532.6981,-329.4885"/>
<text text-anchor="middle" x="503.4649" y="-328.7" font-family="Arial" font-size="9.00" fill="#000000">recover</text>
</g>
<!-- monitoring&#45;&gt;error -->
<g id="edge7" class="edge">
<title>monitoring&#45;&gt;error</title>
<path fill="none" stroke="#0000ff" d="M543.0284,-339.9855C520.717,-339.659 496.0544,-339.298 473.9446,-338.9744"/>
<polygon fill="#0000ff" stroke="#0000ff" points="473.7017,-335.4706 463.6516,-338.8237 473.5992,-342.4698 473.7017,-335.4706"/>
<text text-anchor="middle" x="503.4649" y="-353.5" font-family="Arial" font-size="9.00" fill="#000000">raise_error</text>
<text text-anchor="middle" x="503.4649" y="-342.7" font-family="Arial" font-size="9.00" fill="#000000">[is_error]</text>
</g>
<!-- resetting -->
<g id="node6" class="node">
<title>resetting</title>
<path fill="#ffffff" stroke="#000000" d="M922.3666,-432C922.3666,-432 816.5146,-432 816.5146,-432 810.5146,-432 804.5146,-426 804.5146,-420 804.5146,-420 804.5146,-408 804.5146,-408 804.5146,-402 810.5146,-396 816.5146,-396 816.5146,-396 922.3666,-396 922.3666,-396 928.3666,-396 934.3666,-402 934.3666,-408 934.3666,-408 934.3666,-420 934.3666,-420 934.3666,-426 928.3666,-432 922.3666,-432"/>
<text text-anchor="middle" x="869.4406" y="-417" font-family="Arial" font-size="10.00" fill="#000000">Resetting</text>
<text text-anchor="middle" x="869.4406" y="-405" font-family="Arial" font-size="10.00" fill="#000000">entry / on_enter_resetting</text>
</g>
<!-- monitoring&#45;&gt;resetting -->
<g id="edge6" class="edge">
<title>monitoring&#45;&gt;resetting</title>
<path fill="none" stroke="#0000ff" d="M681.8513,-346.9904C714.2601,-351.1281 752.9782,-358.0204 786.4776,-369.4 802.2274,-374.7501 818.5593,-382.89 832.524,-390.758"/>
<polygon fill="#0000ff" stroke="#0000ff" points="830.9215,-393.8745 841.3292,-395.8571 834.4295,-387.8169 830.9215,-393.8745"/>
<text text-anchor="middle" x="742.9725" y="-383.5" font-family="Arial" font-size="9.00" fill="#000000">reset</text>
<text text-anchor="middle" x="742.9725" y="-372.7" font-family="Arial" font-size="9.00" fill="#000000">[!is_running, !is_error]</text>
</g>
<!-- resetting&#45;&gt;error -->
<g id="edge12" class="edge">
<title>resetting&#45;&gt;error</title>
<path fill="none" stroke="#0000ff" d="M804.4445,-410.665C726.7302,-405.6016 593.1773,-393.4753 481.7164,-366 478.1594,-365.1232 474.5401,-364.1269 470.9097,-363.0453"/>
<polygon fill="#0000ff" stroke="#0000ff" points="471.8995,-359.6875 461.3095,-360.0067 469.7872,-366.3612 471.8995,-359.6875"/>
<text text-anchor="middle" x="612.3404" y="-413.5" font-family="Arial" font-size="9.00" fill="#000000">raise_error</text>
<text text-anchor="middle" x="612.3404" y="-402.7" font-family="Arial" font-size="9.00" fill="#000000">[is_error]</text>
</g>
<!-- waiting_for_lanes -->
<g id="node7" class="node">
<title>waiting_for_lanes</title>
<path fill="#ffffff" stroke="#000000" d="M1337.821,-196C1337.821,-196 1192.0641,-196 1192.0641,-196 1186.0641,-196 1180.0641,-190 1180.0641,-184 1180.0641,-184 1180.0641,-164 1180.0641,-164 1180.0641,-158 1186.0641,-152 1192.0641,-152 1192.0641,-152 1337.821,-152 1337.821,-152 1343.821,-152 1349.821,-158 1349.821,-164 1349.821,-164 1349.821,-184 1349.821,-184 1349.821,-190 1343.821,-196 1337.821,-196"/>
<text text-anchor="middle" x="1264.9426" y="-183" font-family="Arial" font-size="10.00" fill="#000000">Waiting For Lanes</text>
<text text-anchor="middle" x="1264.9426" y="-171" font-family="Arial" font-size="10.00" fill="#000000">entry / on_enter_waiting_for_lanes</text>
<text text-anchor="middle" x="1264.9426" y="-159" font-family="Arial" font-size="10.00" fill="#000000">wait / on_wait</text>
</g>
<!-- resetting&#45;&gt;waiting_for_lanes -->
<g id="edge8" class="edge">
<title>resetting&#45;&gt;waiting_for_lanes</title>
<path fill="none" stroke="#0000ff" d="M883.424,-395.6753C898.6336,-374.7191 922.3788,-338.7979 934.4036,-304 944.3318,-275.2694 929.5387,-188.4303 952.4036,-168.4 983.7697,-140.9224 1090.1048,-148.4525 1170.0976,-158.8619"/>
<polygon fill="#0000ff" stroke="#0000ff" points="1169.834,-162.3576 1180.209,-160.2108 1170.7597,-155.4191 1169.834,-162.3576"/>
<text text-anchor="middle" x="1056.9179" y="-182.5" font-family="Arial" font-size="9.00" fill="#000000">start_reset</text>
<text text-anchor="middle" x="1056.9179" y="-171.7" font-family="Arial" font-size="9.00" fill="#000000">[is_loki_up, !is_max_attempts or is_error]</text>
</g>
<!-- loki_power_init -->
<g id="node8" class="node">
<title>loki_power_init</title>
<path fill="#ffffff" stroke="#000000" d="M1331.6428,-604C1331.6428,-604 1198.2423,-604 1198.2423,-604 1192.2423,-604 1186.2423,-598 1186.2423,-592 1186.2423,-592 1186.2423,-572 1186.2423,-572 1186.2423,-566 1192.2423,-560 1198.2423,-560 1198.2423,-560 1331.6428,-560 1331.6428,-560 1337.6428,-560 1343.6428,-566 1343.6428,-572 1343.6428,-572 1343.6428,-592 1343.6428,-592 1343.6428,-598 1337.6428,-604 1331.6428,-604"/>
<text text-anchor="middle" x="1264.9426" y="-591" font-family="Arial" font-size="10.00" fill="#000000">Loki Power Init</text>
<text text-anchor="middle" x="1264.9426" y="-579" font-family="Arial" font-size="10.00" fill="#000000">entry / on_enter_loki_power_init</text>
<text text-anchor="middle" x="1264.9426" y="-567" font-family="Arial" font-size="10.00" fill="#000000">wait_loki / on_wait_loki</text>
</g>
<!-- resetting&#45;&gt;loki_power_init -->
<g id="edge9" class="edge">
<title>resetting&#45;&gt;loki_power_init</title>
<path fill="none" stroke="#0000ff" d="M880.623,-432.293C894.5709,-453.3114 920.5112,-486.9605 952.4036,-503 1035.9184,-545.0018 1078.0742,-484.088 1161.4322,-526.4 1171.9786,-531.7533 1169.7598,-539.1936 1179.4322,-546 1184.158,-549.3255 1189.2385,-552.4259 1194.4816,-555.2991"/>
<polygon fill="#0000ff" stroke="#0000ff" points="1192.9339,-558.439 1203.4248,-559.9194 1196.1469,-552.2199 1192.9339,-558.439"/>
<text text-anchor="middle" x="1056.9179" y="-539.5" font-family="Arial" font-size="9.00" fill="#000000">start_reset</text>
<text text-anchor="middle" x="1056.9179" y="-528.7" font-family="Arial" font-size="9.00" fill="#000000">[!is_loki_power_board, !is_max_attempts or is_error]</text>
</g>
<!-- loki_cob_init -->
<g id="node9" class="node">
<title>loki_cob_init</title>
<path fill="#ffffff" stroke="#000000" d="M1712.8092,-542C1712.8092,-542 1590.622,-542 1590.622,-542 1584.622,-542 1578.622,-536 1578.622,-530 1578.622,-530 1578.622,-510 1578.622,-510 1578.622,-504 1584.622,-498 1590.622,-498 1590.622,-498 1712.8092,-498 1712.8092,-498 1718.8092,-498 1724.8092,-504 1724.8092,-510 1724.8092,-510 1724.8092,-530 1724.8092,-530 1724.8092,-536 1718.8092,-542 1712.8092,-542"/>
<text text-anchor="middle" x="1651.7156" y="-529" font-family="Arial" font-size="10.00" fill="#000000">Loki COB Init</text>
<text text-anchor="middle" x="1651.7156" y="-517" font-family="Arial" font-size="10.00" fill="#000000">entry / on_enter_loki_cob_init</text>
<text text-anchor="middle" x="1651.7156" y="-505" font-family="Arial" font-size="10.00" fill="#000000">wait_loki / on_wait_loki</text>
</g>
<!-- resetting&#45;&gt;loki_cob_init -->
<g id="edge10" class="edge">
<title>resetting&#45;&gt;loki_cob_init</title>
<path fill="none" stroke="#0000ff" d="M887.0007,-432.0061C902.6349,-446.7437 926.92,-466.631 952.4036,-476 1008.8666,-496.7586 1395.6005,-511.7075 1568.4972,-517.431"/>
<polygon fill="#0000ff" stroke="#0000ff" points="1568.4613,-520.9316 1578.5708,-517.762 1568.6912,-513.9354 1568.4613,-520.9316"/>
<text text-anchor="middle" x="1264.9426" y="-521.5" font-family="Arial" font-size="9.00" fill="#000000">start_reset</text>
<text text-anchor="middle" x="1264.9426" y="-510.7" font-family="Arial" font-size="9.00" fill="#000000">[!is_loki_cob, !is_max_attempts or is_error]</text>
</g>
<!-- loki_asic_init -->
<g id="node10" class="node">
<title>loki_asic_init</title>
<path fill="#ffffff" stroke="#000000" d="M2005.8623,-438C2005.8623,-438 1881.3559,-438 1881.3559,-438 1875.3559,-438 1869.3559,-432 1869.3559,-426 1869.3559,-426 1869.3559,-406 1869.3559,-406 1869.3559,-400 1875.3559,-394 1881.3559,-394 1881.3559,-394 2005.8623,-394 2005.8623,-394 2011.8623,-394 2017.8623,-400 2017.8623,-406 2017.8623,-406 2017.8623,-426 2017.8623,-426 2017.8623,-432 2011.8623,-438 2005.8623,-438"/>
<text text-anchor="middle" x="1943.6091" y="-425" font-family="Arial" font-size="10.00" fill="#000000">Loki ASIC Init</text>
<text text-anchor="middle" x="1943.6091" y="-413" font-family="Arial" font-size="10.00" fill="#000000">entry / on_enter_loki_asic_init</text>
<text text-anchor="middle" x="1943.6091" y="-401" font-family="Arial" font-size="10.00" fill="#000000">wait_loki / on_wait_loki</text>
</g>
<!-- resetting&#45;&gt;loki_asic_init -->
<g id="edge11" class="edge">
<title>resetting&#45;&gt;loki_asic_init</title>
<path fill="none" stroke="#0000ff" d="M934.6161,-414.1214C1120.2331,-414.467 1651.6044,-415.4563 1859.1285,-415.8427"/>
<polygon fill="#0000ff" stroke="#0000ff" points="1859.352,-419.343 1869.3585,-415.8618 1859.3651,-412.343 1859.352,-419.343"/>
<text text-anchor="middle" x="1454.7103" y="-429.5" font-family="Arial" font-size="9.00" fill="#000000">start_reset</text>
<text text-anchor="middle" x="1454.7103" y="-418.7" font-family="Arial" font-size="9.00" fill="#000000">[!is_loki_asic, !is_max_attempts or is_error]</text>
</g>
<!-- waiting_for_lanes&#45;&gt;error -->
<g id="edge15" class="edge">
<title>waiting_for_lanes&#45;&gt;error</title>
<path fill="none" stroke="#0000ff" d="M1193.0474,-151.9475C1182.5328,-149.4853 1171.7666,-147.3731 1161.4322,-146 1069.3399,-133.7642 1044.8729,-137.0477 952.4036,-146 740.2427,-166.54 662.0544,-124.3675 481.7164,-238 455.3346,-254.6234 435.0922,-284.2297 422.4394,-306.9288"/>
<polygon fill="#0000ff" stroke="#0000ff" points="419.2883,-305.399 417.6456,-315.8657 425.4569,-308.7079 419.2883,-305.399"/>
<text text-anchor="middle" x="742.9725" y="-171.5" font-family="Arial" font-size="9.00" fill="#000000">raise_error</text>
<text text-anchor="middle" x="742.9725" y="-160.7" font-family="Arial" font-size="9.00" fill="#000000">[is_error]</text>
</g>
<!-- waiting_for_lanes&#45;&gt;resetting -->
<g id="edge13" class="edge">
<title>waiting_for_lanes&#45;&gt;resetting</title>
<path fill="none" stroke="#0000ff" d="M1180.2507,-187.3867C1173.887,-188.302 1167.5606,-189.1837 1161.4322,-190 1115.1005,-196.1714 986.8231,-181.777 952.4036,-213.4 922.1721,-241.1752 949.0496,-265.6477 934.4036,-304 922.79,-334.4115 903.1385,-366.1104 888.4838,-387.6233"/>
<polygon fill="#0000ff" stroke="#0000ff" points="885.5638,-385.6922 882.7452,-395.9052 891.3175,-389.679 885.5638,-385.6922"/>
<text text-anchor="middle" x="1056.9179" y="-227.5" font-family="Arial" font-size="9.00" fill="#000000">reset</text>
<text text-anchor="middle" x="1056.9179" y="-216.7" font-family="Arial" font-size="9.00" fill="#000000">[is_timeout, !is_error]</text>
</g>
<!-- waiting_for_channels -->
<g id="node11" class="node">
<title>waiting_for_channels</title>
<path fill="#ffffff" stroke="#000000" d="M1732.7123,-187C1732.7123,-187 1570.7189,-187 1570.7189,-187 1564.7189,-187 1558.7189,-181 1558.7189,-175 1558.7189,-175 1558.7189,-155 1558.7189,-155 1558.7189,-149 1564.7189,-143 1570.7189,-143 1570.7189,-143 1732.7123,-143 1732.7123,-143 1738.7123,-143 1744.7123,-149 1744.7123,-155 1744.7123,-155 1744.7123,-175 1744.7123,-175 1744.7123,-181 1738.7123,-187 1732.7123,-187"/>
<text text-anchor="middle" x="1651.7156" y="-174" font-family="Arial" font-size="10.00" fill="#000000">Waiting For Channels</text>
<text text-anchor="middle" x="1651.7156" y="-162" font-family="Arial" font-size="10.00" fill="#000000">entry / on_enter_waiting_for_channels</text>
<text text-anchor="middle" x="1651.7156" y="-150" font-family="Arial" font-size="10.00" fill="#000000">wait / on_wait</text>
</g>
<!-- waiting_for_lanes&#45;&gt;waiting_for_channels -->
<g id="edge14" class="edge">
<title>waiting_for_lanes&#45;&gt;waiting_for_channels</title>
<path fill="none" stroke="#0000ff" d="M1349.8215,-172.0249C1408.3802,-170.6623 1486.5646,-168.843 1548.6952,-167.3972"/>
<polygon fill="#0000ff" stroke="#0000ff" points="1549.0004,-170.8912 1558.9162,-167.1594 1548.8375,-163.8931 1549.0004,-170.8912"/>
<text text-anchor="middle" x="1454.7103" y="-185.5" font-family="Arial" font-size="9.00" fill="#000000">wait</text>
<text text-anchor="middle" x="1454.7103" y="-174.7" font-family="Arial" font-size="9.00" fill="#000000">[is_lane_up, !is_error]</text>
</g>
<!-- loki_power_init&#45;&gt;error -->
<g id="edge26" class="edge">
<title>loki_power_init&#45;&gt;error</title>
<path fill="none" stroke="#0000ff" d="M1186.1315,-594.6019C1122.4604,-602.4384 1030.8555,-608.3927 952.4036,-593 759.6535,-555.1813 717.3359,-516.9076 543.2134,-426 509.1612,-408.2217 472.7404,-384.3366 446.191,-365.9366"/>
<polygon fill="#0000ff" stroke="#0000ff" points="448.1362,-363.026 437.9335,-360.17 444.1283,-368.7651 448.1362,-363.026"/>
<text text-anchor="middle" x="742.9725" y="-561.5" font-family="Arial" font-size="9.00" fill="#000000">raise_error</text>
<text text-anchor="middle" x="742.9725" y="-550.7" font-family="Arial" font-size="9.00" fill="#000000">[is_error]</text>
</g>
<!-- loki_power_init&#45;&gt;resetting -->
<g id="edge24" class="edge">
<title>loki_power_init&#45;&gt;resetting</title>
<path fill="none" stroke="#0000ff" d="M1186.076,-573.8422C1094.3033,-564.2887 954.8782,-549.5597 952.4036,-548 913.345,-523.3816 889.7322,-472.9996 878.1728,-441.5129"/>
<polygon fill="#0000ff" stroke="#0000ff" points="881.4522,-440.2879 874.839,-432.0105 874.847,-442.6053 881.4522,-440.2879"/>
<text text-anchor="middle" x="1056.9179" y="-583.5" font-family="Arial" font-size="9.00" fill="#000000">reset</text>
<text text-anchor="middle" x="1056.9179" y="-572.7" font-family="Arial" font-size="9.00" fill="#000000">[is_timeout, !is_error]</text>
</g>
<!-- loki_power_init&#45;&gt;loki_cob_init -->
<g id="edge25" class="edge">
<title>loki_power_init&#45;&gt;loki_cob_init</title>
<path fill="none" stroke="#0000ff" d="M1343.678,-569.3786C1409.0153,-558.905 1501.6796,-544.0509 1568.2837,-533.3742"/>
<polygon fill="#0000ff" stroke="#0000ff" points="1569.0078,-536.8029 1578.3277,-531.7641 1567.8998,-529.8911 1569.0078,-536.8029"/>
<text text-anchor="middle" x="1454.7103" y="-578.5" font-family="Arial" font-size="9.00" fill="#000000">wait_loki</text>
<text text-anchor="middle" x="1454.7103" y="-567.7" font-family="Arial" font-size="9.00" fill="#000000">[is_loki_power_board, !is_error]</text>
</g>
<!-- loki_cob_init&#45;&gt;error -->
<g id="edge29" class="edge">
<title>loki_cob_init&#45;&gt;error</title>
<path fill="none" stroke="#0000ff" d="M1637.9722,-542.0664C1619.5755,-569.4731 1584.1969,-615.2626 1540.9676,-637 1430.5855,-692.5044 1388.494,-670 1264.9426,-670 612.3404,-670 612.3404,-670 612.3404,-670 476.916,-670 541.0838,-515.1488 463.7164,-404 455.0589,-391.5623 444.5061,-378.7093 434.8841,-367.6875"/>
<polygon fill="#0000ff" stroke="#0000ff" points="437.3361,-365.1775 428.0826,-360.0178 432.0988,-369.8219 437.3361,-365.1775"/>
<text text-anchor="middle" x="869.4406" y="-683.5" font-family="Arial" font-size="9.00" fill="#000000">raise_error</text>
<text text-anchor="middle" x="869.4406" y="-672.7" font-family="Arial" font-size="9.00" fill="#000000">[is_error]</text>
</g>
<!-- loki_cob_init&#45;&gt;resetting -->
<g id="edge27" class="edge">
<title>loki_cob_init&#45;&gt;resetting</title>
<path fill="none" stroke="#0000ff" d="M1578.4703,-508.0934C1517.5351,-498.3852 1428.4685,-484.6514 1350.4529,-474.4 1173.9621,-451.2087 1128.3914,-456.7422 952.4036,-430 949.8657,-429.6144 947.2871,-429.2067 944.6852,-428.7818"/>
<polygon fill="#0000ff" stroke="#0000ff" points="945.0152,-425.2878 934.571,-427.0676 943.8455,-432.1894 945.0152,-425.2878"/>
<text text-anchor="middle" x="1264.9426" y="-488.5" font-family="Arial" font-size="9.00" fill="#000000">reset</text>
<text text-anchor="middle" x="1264.9426" y="-477.7" font-family="Arial" font-size="9.00" fill="#000000">[is_timeout, !is_error]</text>
</g>
<!-- loki_cob_init&#45;&gt;loki_asic_init -->
<g id="edge28" class="edge">
<title>loki_cob_init&#45;&gt;loki_asic_init</title>
<path fill="none" stroke="#0000ff" d="M1713.6187,-497.9443C1760.0581,-481.3982 1823.7188,-458.7162 1872.2915,-441.4101"/>
<polygon fill="#0000ff" stroke="#0000ff" points="1873.55,-444.6773 1881.7952,-438.0239 1871.2006,-438.0833 1873.55,-444.6773"/>
<text text-anchor="middle" x="1806.9731" y="-493.5" font-family="Arial" font-size="9.00" fill="#000000">wait_loki</text>
<text text-anchor="middle" x="1806.9731" y="-482.7" font-family="Arial" font-size="9.00" fill="#000000">[is_loki_cob, !is_error]</text>
</g>
<!-- loki_asic_init&#45;&gt;error -->
<g id="edge32" class="edge">
<title>loki_asic_init&#45;&gt;error</title>
<path fill="none" stroke="#0000ff" d="M1922.1043,-393.8401C1904.5742,-377.0028 1878.3939,-354.5081 1851.4826,-341 1807.6413,-318.9938 1793.0237,-320.9463 1744.4636,-314 1395.8547,-264.1327 1304.4798,-284.8318 952.4036,-292.4 770.4152,-296.312 724.2961,-291.4484 543.2134,-310 520.3635,-312.3409 495.6813,-316.825 473.7049,-321.53"/>
<polygon fill="#0000ff" stroke="#0000ff" points="472.8317,-318.1382 463.8143,-323.7004 474.3321,-324.9755 472.8317,-318.1382"/>
<text text-anchor="middle" x="1056.9179" y="-306.5" font-family="Arial" font-size="9.00" fill="#000000">raise_error</text>
<text text-anchor="middle" x="1056.9179" y="-295.7" font-family="Arial" font-size="9.00" fill="#000000">[is_error]</text>
</g>
<!-- loki_asic_init&#45;&gt;monitoring -->
<g id="edge31" class="edge">
<title>loki_asic_init&#45;&gt;monitoring</title>
<path fill="none" stroke="#0000ff" d="M1899.357,-393.7939C1843.2244,-367.7246 1742.7532,-328 1651.7156,-328 869.4406,-328 869.4406,-328 869.4406,-328 809.8586,-328 742.6087,-331.5255 691.8355,-334.9047"/>
<polygon fill="#0000ff" stroke="#0000ff" points="691.3245,-331.4312 681.5842,-335.5998 691.7981,-338.4151 691.3245,-331.4312"/>
<text text-anchor="middle" x="1264.9426" y="-341.5" font-family="Arial" font-size="9.00" fill="#000000">wait_loki</text>
<text text-anchor="middle" x="1264.9426" y="-330.7" font-family="Arial" font-size="9.00" fill="#000000">[is_loki_asic, !is_error]</text>
</g>
<!-- loki_asic_init&#45;&gt;resetting -->
<g id="edge30" class="edge">
<title>loki_asic_init&#45;&gt;resetting</title>
<path fill="none" stroke="#0000ff" d="M1925.3891,-438.0243C1908.0416,-457.8856 1880.3601,-486.8367 1851.4826,-506 1661.7563,-631.9039 1577.778,-599.9181 1350.4529,-613 1173.6733,-623.1732 1097.65,-697.2818 952.4036,-596 900.6527,-559.9136 880.5706,-483.3785 873.2723,-441.9842"/>
<polygon fill="#0000ff" stroke="#0000ff" points="876.7115,-441.3275 871.6445,-432.0229 869.8031,-442.4564 876.7115,-441.3275"/>
<text text-anchor="middle" x="1454.7103" y="-624.5" font-family="Arial" font-size="9.00" fill="#000000">reset</text>
<text text-anchor="middle" x="1454.7103" y="-613.7" font-family="Arial" font-size="9.00" fill="#000000">[is_timeout, !is_error]</text>
</g>
<!-- waiting_for_channels&#45;&gt;error -->
<g id="edge18" class="edge">
<title>waiting_for_channels&#45;&gt;error</title>
<path fill="none" stroke="#0000ff" d="M1599.9305,-142.9057C1526.7246,-113.7281 1388.1462,-66 1264.9426,-66 612.3404,-66 612.3404,-66 612.3404,-66 493.4268,-66 434.8518,-233.8625 415.1999,-305.8474"/>
<polygon fill="#0000ff" stroke="#0000ff" points="411.7565,-305.1783 412.5803,-315.7411 418.5233,-306.9701 411.7565,-305.1783"/>
<text text-anchor="middle" x="869.4406" y="-79.5" font-family="Arial" font-size="9.00" fill="#000000">raise_error</text>
<text text-anchor="middle" x="869.4406" y="-68.7" font-family="Arial" font-size="9.00" fill="#000000">[is_error]</text>
</g>
<!-- waiting_for_channels&#45;&gt;resetting -->
<g id="edge16" class="edge">
<title>waiting_for_channels&#45;&gt;resetting</title>
<path fill="none" stroke="#0000ff" d="M1584.853,-187.0243C1570.4951,-191.161 1555.3219,-195.0933 1540.9676,-198 1524.8464,-201.2645 965.6599,-253.2624 952.4036,-263 936.3648,-274.7816 943.4798,-286.2892 934.4036,-304 919.5344,-333.0148 900.3214,-364.9779 886.6561,-386.9364"/>
<polygon fill="#0000ff" stroke="#0000ff" points="883.5109,-385.3644 881.168,-395.6969 889.443,-389.0806 883.5109,-385.3644"/>
<text text-anchor="middle" x="1264.9426" y="-247.5" font-family="Arial" font-size="9.00" fill="#000000">reset</text>
<text text-anchor="middle" x="1264.9426" y="-236.7" font-family="Arial" font-size="9.00" fill="#000000">[is_timeout, !is_error]</text>
</g>
<!-- reactivating -->
<g id="node12" class="node">
<title>reactivating</title>
<path fill="#ffffff" stroke="#000000" d="M2002.8134,-152C2002.8134,-152 1884.4048,-152 1884.4048,-152 1878.4048,-152 1872.4048,-146 1872.4048,-140 1872.4048,-140 1872.4048,-120 1872.4048,-120 1872.4048,-114 1878.4048,-108 1884.4048,-108 1884.4048,-108 2002.8134,-108 2002.8134,-108 2008.8134,-108 2014.8134,-114 2014.8134,-120 2014.8134,-120 2014.8134,-140 2014.8134,-140 2014.8134,-146 2008.8134,-152 2002.8134,-152"/>
<text text-anchor="middle" x="1943.6091" y="-139" font-family="Arial" font-size="10.00" fill="#000000">Reactivating</text>
<text text-anchor="middle" x="1943.6091" y="-127" font-family="Arial" font-size="10.00" fill="#000000">entry / on_enter_reactivating</text>
<text text-anchor="middle" x="1943.6091" y="-115" font-family="Arial" font-size="10.00" fill="#000000">wait / on_wait</text>
</g>
<!-- waiting_for_channels&#45;&gt;reactivating -->
<g id="edge17" class="edge">
<title>waiting_for_channels&#45;&gt;reactivating</title>
<path fill="none" stroke="#0000ff" d="M1744.4736,-153.8777C1782.3156,-149.3402 1825.6845,-144.14 1862.2681,-139.7533"/>
<polygon fill="#0000ff" stroke="#0000ff" points="1862.8843,-143.2046 1872.3964,-138.5389 1862.0509,-136.2544 1862.8843,-143.2046"/>
<text text-anchor="middle" x="1806.9731" y="-165.5" font-family="Arial" font-size="9.00" fill="#000000">wait</text>
<text text-anchor="middle" x="1806.9731" y="-154.7" font-family="Arial" font-size="9.00" fill="#000000">[is_chan_up, !is_error]</text>
</g>
<!-- reactivating&#45;&gt;error -->
<g id="edge21" class="edge">
<title>reactivating&#45;&gt;error</title>
<path fill="none" stroke="#0000ff" d="M1909.2468,-107.7399C1856.2291,-75.5975 1750.2776,-20 1651.7156,-20 612.3404,-20 612.3404,-20 612.3404,-20 543.7941,-20 523.1803,-47.4167 481.7164,-102 434.3885,-164.3026 416.773,-257.4126 410.5478,-305.9563"/>
<polygon fill="#0000ff" stroke="#0000ff" points="407.0719,-305.5464 409.3542,-315.8925 414.022,-306.3813 407.0719,-305.5464"/>
<text text-anchor="middle" x="1056.9179" y="-33.5" font-family="Arial" font-size="9.00" fill="#000000">raise_error</text>
<text text-anchor="middle" x="1056.9179" y="-22.7" font-family="Arial" font-size="9.00" fill="#000000">[is_error]</text>
</g>
<!-- reactivating&#45;&gt;monitoring -->
<g id="edge20" class="edge">
<title>reactivating&#45;&gt;monitoring</title>
<path fill="none" stroke="#0000ff" d="M1872.1599,-117.3282C1705.7753,-90.774 1281.5843,-40.2184 952.4036,-148 834.0351,-186.7567 710.6582,-269.0968 650.2539,-312.6393"/>
<polygon fill="#0000ff" stroke="#0000ff" points="647.8426,-310.0648 641.8068,-318.7723 651.9553,-315.7293 647.8426,-310.0648"/>
<text text-anchor="middle" x="1264.9426" y="-111.5" font-family="Arial" font-size="9.00" fill="#000000">wait</text>
<text text-anchor="middle" x="1264.9426" y="-100.7" font-family="Arial" font-size="9.00" fill="#000000">[is_running, !is_error]</text>
</g>
<!-- reactivating&#45;&gt;resetting -->
<g id="edge19" class="edge">
<title>reactivating&#45;&gt;resetting</title>
<path fill="none" stroke="#0000ff" d="M1912.0329,-152.0412C1846.4197,-196.5767 1689.0871,-296.8741 1540.9676,-342 1431.0498,-375.4874 1095.8176,-399.9017 944.7073,-409.5069"/>
<polygon fill="#0000ff" stroke="#0000ff" points="944.3473,-406.0225 934.5876,-410.1454 944.7882,-413.0086 944.3473,-406.0225"/>
<text text-anchor="middle" x="1454.7103" y="-386.5" font-family="Arial" font-size="9.00" fill="#000000">reset</text>
<text text-anchor="middle" x="1454.7103" y="-375.7" font-family="Arial" font-size="9.00" fill="#000000">[is_timeout, !is_error]</text>
</g>
</g>
</svg>
