<?xml version="1.0" encoding="UTF-8" standalone="no"?>
<!DOCTYPE svg PUBLIC "-//W3C//DTD SVG 1.1//EN"
 "http://www.w3.org/Graphics/SVG/1.1/DTD/svg11.dtd">
<!-- Generated by graphviz version 2.40.1 (20161225.0304)
 -->
<!-- Title: list Pages: 1 -->
<svg width="2600pt" height="749pt"
 viewBox="0.00 0.00 2600.18 748.60" xmlns="http://www.w3.org/2000/svg" xmlns:xlink="http://www.w3.org/1999/xlink">
<g id="graph0" class="graph" transform="scale(1 1) rotate(0) translate(4 744.6)">
<title>list</title>
<polygon fill="#ffffff" stroke="transparent" points="-4,4 -4,-744.6 2596.185,-744.6 2596.185,4 -4,4"/>
<text text-anchor="middle" x="1296.0925" y="-7" font-family="Arial" font-size="10.00" fill="#000000">MonitorControl</text>
<!-- i -->
<g id="node1" class="node">
<title>i</title>
<ellipse fill="#000000" stroke="#000000" cx="7" cy="-424" rx="7" ry="7"/>
<text text-anchor="middle" x="7" y="-423.7" font-family="Times,serif" font-size="1.00" fill="#000000">i</text>
</g>
<!-- idle -->
<g id="node2" class="node">
<title>idle</title>
<path fill="#40e0d0" stroke="#000000" stroke-width="2" d="M146.2101,-442C146.2101,-442 62.9299,-442 62.9299,-442 56.9299,-442 50.9299,-436 50.9299,-430 50.9299,-430 50.9299,-418 50.9299,-418 50.9299,-412 56.9299,-406 62.9299,-406 62.9299,-406 146.2101,-406 146.2101,-406 152.2101,-406 158.2101,-412 158.2101,-418 158.2101,-418 158.2101,-430 158.2101,-430 158.2101,-436 152.2101,-442 146.2101,-442"/>
<text text-anchor="middle" x="104.57" y="-427" font-family="Arial" font-size="10.00" fill="#000000">System Idle</text>
<text text-anchor="middle" x="104.57" y="-415" font-family="Arial" font-size="10.00" fill="#000000">entry / on_enter_idle</text>
</g>
<!-- i&#45;&gt;idle -->
<g id="edge1" class="edge">
<title>i&#45;&gt;idle</title>
<path fill="none" stroke="#0000ff" d="M14.017,-424C20.1725,-424 29.7961,-424 40.5133,-424"/>
<polygon fill="#0000ff" stroke="#0000ff" points="40.5949,-427.5001 50.5949,-424 40.5948,-420.5001 40.5949,-427.5001"/>
</g>
<!-- initialising -->
<g id="node3" class="node">
<title>initialising</title>
<path fill="#ffffff" stroke="#000000" d="M259.475,-484C259.475,-484 223.6968,-484 223.6968,-484 217.6968,-484 211.6968,-478 211.6968,-472 211.6968,-472 211.6968,-460 211.6968,-460 211.6968,-454 217.6968,-448 223.6968,-448 223.6968,-448 259.475,-448 259.475,-448 265.475,-448 271.475,-454 271.475,-460 271.475,-460 271.475,-472 271.475,-472 271.475,-478 265.475,-484 259.475,-484"/>
<text text-anchor="middle" x="241.5859" y="-463" font-family="Arial" font-size="10.00" fill="#000000">Initialising</text>
</g>
<!-- idle&#45;&gt;initialising -->
<g id="edge2" class="edge">
<title>idle&#45;&gt;initialising</title>
<path fill="none" stroke="#0000ff" d="M158.3291,-440.479C172.9287,-444.9543 188.4666,-449.7171 202.1169,-453.9014"/>
<polygon fill="#0000ff" stroke="#0000ff" points="201.0958,-457.2491 211.6825,-456.8336 203.1474,-450.5565 201.0958,-457.2491"/>
<text text-anchor="middle" x="184.8907" y="-454.7" font-family="Arial" font-size="9.00" fill="#000000">start</text>
</g>
<!-- error -->
<g id="node4" class="node">
<title>error</title>
<path fill="#ffffff" stroke="#000000" d="M451.5613,-430C451.5613,-430 363.1825,-430 363.1825,-430 357.1825,-430 351.1825,-424 351.1825,-418 351.1825,-418 351.1825,-398 351.1825,-398 351.1825,-392 357.1825,-386 363.1825,-386 363.1825,-386 451.5613,-386 451.5613,-386 457.5613,-386 463.5613,-392 463.5613,-398 463.5613,-398 463.5613,-418 463.5613,-418 463.5613,-424 457.5613,-430 451.5613,-430"/>
<text text-anchor="middle" x="407.3719" y="-417" font-family="Arial" font-size="10.00" fill="#000000">Error</text>
<text text-anchor="middle" x="407.3719" y="-405" font-family="Arial" font-size="10.00" fill="#000000">entry / on_enter_error</text>
<text text-anchor="middle" x="407.3719" y="-393" font-family="Arial" font-size="10.00" fill="#000000">exit / on_exit_error</text>
</g>
<!-- idle&#45;&gt;error -->
<g id="edge3" class="edge">
<title>idle&#45;&gt;error</title>
<path fill="none" stroke="#0000ff" d="M158.2083,-420.5505C175.2847,-419.4907 194.254,-418.3534 211.6414,-417.4 254.4903,-415.0506 302.634,-412.7342 340.4515,-410.9888"/>
<polygon fill="#0000ff" stroke="#0000ff" points="341.0022,-414.4673 350.8311,-410.512 340.681,-407.4746 341.0022,-414.4673"/>
<text text-anchor="middle" x="241.5859" y="-431.5" font-family="Arial" font-size="9.00" fill="#000000">raise_error</text>
<text text-anchor="middle" x="241.5859" y="-420.7" font-family="Arial" font-size="9.00" fill="#000000">[is_error]</text>
</g>
<!-- initialising&#45;&gt;error -->
<g id="edge5" class="edge">
<title>initialising&#45;&gt;error</title>
<path fill="none" stroke="#0000ff" d="M271.6085,-455.4966C291.1315,-448.6665 317.3699,-439.4871 341.575,-431.019"/>
<polygon fill="#0000ff" stroke="#0000ff" points="342.803,-434.2974 351.0862,-427.6915 340.4914,-427.6901 342.803,-434.2974"/>
<text text-anchor="middle" x="311.2789" y="-462.5" font-family="Arial" font-size="9.00" fill="#000000">raise_error</text>
<text text-anchor="middle" x="311.2789" y="-451.7" font-family="Arial" font-size="9.00" fill="#000000">[is_error]</text>
</g>
<!-- monitoring -->
<g id="node5" class="node">
<title>monitoring</title>
<path fill="#ffffff" stroke="#000000" d="M669.5946,-613C669.5946,-613 555.0862,-613 555.0862,-613 549.0862,-613 543.0862,-607 543.0862,-601 543.0862,-601 543.0862,-581 543.0862,-581 543.0862,-575 549.0862,-569 555.0862,-569 555.0862,-569 669.5946,-569 669.5946,-569 675.5946,-569 681.5946,-575 681.5946,-581 681.5946,-581 681.5946,-601 681.5946,-601 681.5946,-607 675.5946,-613 669.5946,-613"/>
<text text-anchor="middle" x="612.3404" y="-600" font-family="Arial" font-size="10.00" fill="#000000">Monitoring</text>
<text text-anchor="middle" x="612.3404" y="-588" font-family="Arial" font-size="10.00" fill="#000000">entry / on_enter_monitoring</text>
<text text-anchor="middle" x="612.3404" y="-576" font-family="Arial" font-size="10.00" fill="#000000">monitor / on_monitor</text>
</g>
<!-- initialising&#45;&gt;monitoring -->
<g id="edge4" class="edge">
<title>initialising&#45;&gt;monitoring</title>
<path fill="none" stroke="#0000ff" d="M263.9813,-484.2109C304.4629,-515.8184 393.8011,-579.685 481.7164,-603 498.0932,-607.3431 515.9837,-608.1483 533.1247,-607.1052"/>
<polygon fill="#0000ff" stroke="#0000ff" points="533.4312,-610.5919 543.1134,-606.2902 532.8619,-603.6151 533.4312,-610.5919"/>
<text text-anchor="middle" x="407.3719" y="-610.5" font-family="Arial" font-size="9.00" fill="#000000">monitor</text>
<text text-anchor="middle" x="407.3719" y="-599.7" font-family="Arial" font-size="9.00" fill="#000000">[!is_error]</text>
</g>
<!-- error&#45;&gt;error -->
<g id="edge23" class="edge">
<title>error&#45;&gt;error</title>
<path fill="none" stroke="#0000ff" d="M389.5872,-430.2124C388.1312,-439.7952 394.0594,-448 407.3719,-448 415.4842,-448 420.8544,-444.9533 423.4826,-440.4045"/>
<polygon fill="#0000ff" stroke="#0000ff" points="426.9896,-440.6474 425.1566,-430.2124 420.0821,-439.5129 426.9896,-440.6474"/>
<text text-anchor="middle" x="407.3719" y="-461.5" font-family="Arial" font-size="9.00" fill="#000000">raise_error</text>
<text text-anchor="middle" x="407.3719" y="-450.7" font-family="Arial" font-size="9.00" fill="#000000">[is_error]</text>
</g>
<!-- error&#45;&gt;monitoring -->
<g id="edge22" class="edge">
<title>error&#45;&gt;monitoring</title>
<path fill="none" stroke="#0000ff" d="M410.857,-430.0157C417.6881,-465.3658 436.3389,-534.3224 481.7164,-569 496.3629,-580.1929 514.6436,-586.5334 532.8467,-589.9628"/>
<polygon fill="#0000ff" stroke="#0000ff" points="532.4997,-593.4519 542.928,-591.5809 533.6091,-586.5403 532.4997,-593.4519"/>
<text text-anchor="middle" x="503.4649" y="-590.7" font-family="Arial" font-size="9.00" fill="#000000">monitor</text>
</g>
<!-- monitoring&#45;&gt;error -->
<g id="edge7" class="edge">
<title>monitoring&#45;&gt;error</title>
<path fill="none" stroke="#0000ff" d="M568.7431,-568.9752C532.1892,-550.4033 485.3678,-526.3236 481.7164,-523 455.6816,-499.3023 434.8906,-464.5413 421.9881,-439.4453"/>
<polygon fill="#0000ff" stroke="#0000ff" points="425.0391,-437.721 417.4349,-430.3435 418.7787,-440.8528 425.0391,-437.721"/>
<text text-anchor="middle" x="503.4649" y="-559.5" font-family="Arial" font-size="9.00" fill="#000000">raise_error</text>
<text text-anchor="middle" x="503.4649" y="-548.7" font-family="Arial" font-size="9.00" fill="#000000">[is_error]</text>
</g>
<!-- resetting -->
<g id="node6" class="node">
<title>resetting</title>
<path fill="#ffffff" stroke="#000000" d="M922.3666,-388C922.3666,-388 816.5146,-388 816.5146,-388 810.5146,-388 804.5146,-382 804.5146,-376 804.5146,-376 804.5146,-364 804.5146,-364 804.5146,-358 810.5146,-352 816.5146,-352 816.5146,-352 922.3666,-352 922.3666,-352 928.3666,-352 934.3666,-358 934.3666,-364 934.3666,-364 934.3666,-376 934.3666,-376 934.3666,-382 928.3666,-388 922.3666,-388"/>
<text text-anchor="middle" x="869.4406" y="-373" font-family="Arial" font-size="10.00" fill="#000000">Resetting</text>
<text text-anchor="middle" x="869.4406" y="-361" font-family="Arial" font-size="10.00" fill="#000000">entry / on_enter_resetting</text>
</g>
<!-- monitoring&#45;&gt;resetting -->
<g id="edge6" class="edge">
<title>monitoring&#45;&gt;resetting</title>
<path fill="none" stroke="#0000ff" d="M666.8676,-568.9614C677.6015,-564.9102 688.8329,-560.8699 699.4674,-557.4 737.5374,-544.9783 755.4048,-559.2607 786.4776,-534 829.8562,-498.7352 852.7182,-434.9235 862.8281,-398.1575"/>
<polygon fill="#0000ff" stroke="#0000ff" points="866.3107,-398.6742 865.4567,-388.1138 859.5388,-396.9018 866.3107,-398.6742"/>
<text text-anchor="middle" x="742.9725" y="-571.5" font-family="Arial" font-size="9.00" fill="#000000">reset</text>
<text text-anchor="middle" x="742.9725" y="-560.7" font-family="Arial" font-size="9.00" fill="#000000">[!is_running, !is_error]</text>
</g>
<!-- resetting&#45;&gt;error -->
<g id="edge12" class="edge">
<title>resetting&#45;&gt;error</title>
<path fill="none" stroke="#0000ff" d="M819.7023,-351.8826C728.7277,-320.062 539.5492,-260.3741 481.7164,-292 449.3801,-309.6831 429.0373,-348.1008 417.9646,-375.8885"/>
<polygon fill="#0000ff" stroke="#0000ff" points="414.5605,-374.9955 414.2995,-385.5871 421.1086,-377.47 414.5605,-374.9955"/>
<text text-anchor="middle" x="612.3404" y="-322.5" font-family="Arial" font-size="9.00" fill="#000000">raise_error</text>
<text text-anchor="middle" x="612.3404" y="-311.7" font-family="Arial" font-size="9.00" fill="#000000">[is_error]</text>
</g>
<!-- waiting_for_lanes -->
<g id="node7" class="node">
<title>waiting_for_lanes</title>
<path fill="#ffffff" stroke="#000000" d="M1337.821,-189C1337.821,-189 1192.0641,-189 1192.0641,-189 1186.0641,-189 1180.0641,-183 1180.0641,-177 1180.0641,-177 1180.0641,-157 1180.0641,-157 1180.0641,-151 1186.0641,-145 1192.0641,-145 1192.0641,-145 1337.821,-145 1337.821,-145 1343.821,-145 1349.821,-151 1349.821,-157 1349.821,-157 1349.821,-177 1349.821,-177 1349.821,-183 1343.821,-189 1337.821,-189"/>
<text text-anchor="middle" x="1264.9426" y="-176" font-family="Arial" font-size="10.00" fill="#000000">Waiting For Lanes</text>
<text text-anchor="middle" x="1264.9426" y="-164" font-family="Arial" font-size="10.00" fill="#000000">entry / on_enter_waiting_for_lanes</text>
<text text-anchor="middle" x="1264.9426" y="-152" font-family="Arial" font-size="10.00" fill="#000000">wait / on_wait</text>
</g>
<!-- resetting&#45;&gt;waiting_for_lanes -->
<g id="edge8" class="edge">
<title>resetting&#45;&gt;waiting_for_lanes</title>
<path fill="none" stroke="#0000ff" d="M913.2476,-351.9694C921.4645,-346.6901 929.1212,-340.0984 934.4036,-332 953.5411,-302.6607 926.5738,-199.0614 952.4036,-175.4 983.1581,-147.2272 1089.6159,-149.8518 1169.8045,-156.4506"/>
<polygon fill="#0000ff" stroke="#0000ff" points="1169.6796,-159.9526 1179.9414,-157.317 1170.2758,-152.978 1169.6796,-159.9526"/>
<text text-anchor="middle" x="1056.9179" y="-189.5" font-family="Arial" font-size="9.00" fill="#000000">start_reset</text>
<text text-anchor="middle" x="1056.9179" y="-178.7" font-family="Arial" font-size="9.00" fill="#000000">[is_loki_up, !is_max_attempts or is_error]</text>
</g>
<!-- loki_power_init -->
<g id="node8" class="node">
<title>loki_power_init</title>
<path fill="#ffffff" stroke="#000000" d="M1331.6428,-519C1331.6428,-519 1198.2423,-519 1198.2423,-519 1192.2423,-519 1186.2423,-513 1186.2423,-507 1186.2423,-507 1186.2423,-487 1186.2423,-487 1186.2423,-481 1192.2423,-475 1198.2423,-475 1198.2423,-475 1331.6428,-475 1331.6428,-475 1337.6428,-475 1343.6428,-481 1343.6428,-487 1343.6428,-487 1343.6428,-507 1343.6428,-507 1343.6428,-513 1337.6428,-519 1331.6428,-519"/>
<text text-anchor="middle" x="1264.9426" y="-506" font-family="Arial" font-size="10.00" fill="#000000">Loki Power Init</text>
<text text-anchor="middle" x="1264.9426" y="-494" font-family="Arial" font-size="10.00" fill="#000000">entry / on_enter_loki_power_init</text>
<text text-anchor="middle" x="1264.9426" y="-482" font-family="Arial" font-size="10.00" fill="#000000">wait_loki / on_wait_loki</text>
</g>
<!-- resetting&#45;&gt;loki_power_init -->
<g id="edge9" class="edge">
<title>resetting&#45;&gt;loki_power_init</title>
<path fill="none" stroke="#0000ff" d="M877.8795,-388.3367C890.3049,-412.9465 916.047,-455.7853 952.4036,-475 971.7551,-485.2274 1090.323,-491.2909 1175.695,-494.3836"/>
<polygon fill="#0000ff" stroke="#0000ff" points="1175.8151,-497.8899 1185.9328,-494.7461 1176.0629,-490.8943 1175.8151,-497.8899"/>
<text text-anchor="middle" x="1056.9179" y="-507.5" font-family="Arial" font-size="9.00" fill="#000000">start_reset</text>
<text text-anchor="middle" x="1056.9179" y="-496.7" font-family="Arial" font-size="9.00" fill="#000000">[!is_loki_power_board, !is_max_attempts or is_error]</text>
</g>
<!-- loki_cob_init -->
<g id="node9" class="node">
<title>loki_cob_init</title>
<path fill="#ffffff" stroke="#000000" d="M1693.3577,-457C1693.3577,-457 1571.1705,-457 1571.1705,-457 1565.1705,-457 1559.1705,-451 1559.1705,-445 1559.1705,-445 1559.1705,-425 1559.1705,-425 1559.1705,-419 1565.1705,-413 1571.1705,-413 1571.1705,-413 1693.3577,-413 1693.3577,-413 1699.3577,-413 1705.3577,-419 1705.3577,-425 1705.3577,-425 1705.3577,-445 1705.3577,-445 1705.3577,-451 1699.3577,-457 1693.3577,-457"/>
<text text-anchor="middle" x="1632.2641" y="-444" font-family="Arial" font-size="10.00" fill="#000000">Loki COB Init</text>
<text text-anchor="middle" x="1632.2641" y="-432" font-family="Arial" font-size="10.00" fill="#000000">entry / on_enter_loki_cob_init</text>
<text text-anchor="middle" x="1632.2641" y="-420" font-family="Arial" font-size="10.00" fill="#000000">wait_loki / on_wait_loki</text>
</g>
<!-- resetting&#45;&gt;loki_cob_init -->
<g id="edge10" class="edge">
<title>resetting&#45;&gt;loki_cob_init</title>
<path fill="none" stroke="#0000ff" d="M934.566,-370.6484C1027.1851,-372.0813 1202.18,-376.6761 1350.4529,-391.4 1417.6091,-398.0688 1493.1504,-409.9978 1549.1056,-419.6942"/>
<polygon fill="#0000ff" stroke="#0000ff" points="1548.5137,-423.1437 1558.9666,-421.415 1549.7171,-416.248 1548.5137,-423.1437"/>
<text text-anchor="middle" x="1264.9426" y="-405.5" font-family="Arial" font-size="9.00" fill="#000000">start_reset</text>
<text text-anchor="middle" x="1264.9426" y="-394.7" font-family="Arial" font-size="9.00" fill="#000000">[!is_loki_cob, !is_max_attempts or is_error]</text>
</g>
<!-- loki_asic_init -->
<g id="node10" class="node">
<title>loki_asic_init</title>
<path fill="#ffffff" stroke="#000000" d="M1995.074,-569C1995.074,-569 1870.5676,-569 1870.5676,-569 1864.5676,-569 1858.5676,-563 1858.5676,-557 1858.5676,-557 1858.5676,-537 1858.5676,-537 1858.5676,-531 1864.5676,-525 1870.5676,-525 1870.5676,-525 1995.074,-525 1995.074,-525 2001.074,-525 2007.074,-531 2007.074,-537 2007.074,-537 2007.074,-557 2007.074,-557 2007.074,-563 2001.074,-569 1995.074,-569"/>
<text text-anchor="middle" x="1932.8208" y="-556" font-family="Arial" font-size="10.00" fill="#000000">Loki ASIC Init</text>
<text text-anchor="middle" x="1932.8208" y="-544" font-family="Arial" font-size="10.00" fill="#000000">entry / on_enter_loki_asic_init</text>
<text text-anchor="middle" x="1932.8208" y="-532" font-family="Arial" font-size="10.00" fill="#000000">wait_loki / on_wait_loki</text>
</g>
<!-- resetting&#45;&gt;loki_asic_init -->
<g id="edge11" class="edge">
<title>resetting&#45;&gt;loki_asic_init</title>
<path fill="none" stroke="#0000ff" d="M873.3361,-388.0914C881.5036,-421.0438 903.8309,-490.1928 952.4036,-520 990.2545,-543.2277 1617.6748,-546.5282 1848.4851,-546.9545"/>
<polygon fill="#0000ff" stroke="#0000ff" points="1848.5067,-550.4545 1858.5127,-546.9717 1848.5188,-543.4545 1848.5067,-550.4545"/>
<text text-anchor="middle" x="1454.7103" y="-559.5" font-family="Arial" font-size="9.00" fill="#000000">start_reset</text>
<text text-anchor="middle" x="1454.7103" y="-548.7" font-family="Arial" font-size="9.00" fill="#000000">[!is_loki_asic, !is_max_attempts or is_error]</text>
</g>
<!-- waiting_for_lanes&#45;&gt;error -->
<g id="edge15" class="edge">
<title>waiting_for_lanes&#45;&gt;error</title>
<path fill="none" stroke="#0000ff" d="M1180.027,-156.0765C1116.9694,-149.8211 1028.996,-145.003 952.4036,-155 737.7785,-183.0134 653.7511,-148.6503 481.7164,-280 449.7414,-304.4131 429.0721,-346.8319 417.8381,-376.1068"/>
<polygon fill="#0000ff" stroke="#0000ff" points="414.4173,-375.2689 414.2549,-385.8625 420.9881,-377.6824 414.4173,-375.2689"/>
<text text-anchor="middle" x="742.9725" y="-192.5" font-family="Arial" font-size="9.00" fill="#000000">raise_error</text>
<text text-anchor="middle" x="742.9725" y="-181.7" font-family="Arial" font-size="9.00" fill="#000000">[is_error]</text>
</g>
<!-- waiting_for_lanes&#45;&gt;resetting -->
<g id="edge13" class="edge">
<title>waiting_for_lanes&#45;&gt;resetting</title>
<path fill="none" stroke="#0000ff" d="M1194.9051,-189.0442C1183.7841,-192.0379 1172.3498,-194.8234 1161.4322,-197 1115.5934,-206.1389 986.245,-188.1591 952.4036,-220.4 916.0281,-255.0552 962.8015,-290.5546 934.4036,-332 930.7686,-337.3051 926.13,-341.9749 921.0082,-346.0577"/>
<polygon fill="#0000ff" stroke="#0000ff" points="918.7672,-343.3561 912.6364,-351.997 922.8176,-349.0653 918.7672,-343.3561"/>
<text text-anchor="middle" x="1056.9179" y="-234.5" font-family="Arial" font-size="9.00" fill="#000000">reset</text>
<text text-anchor="middle" x="1056.9179" y="-223.7" font-family="Arial" font-size="9.00" fill="#000000">[is_timeout, !is_error]</text>
</g>
<!-- delay_asic -->
<g id="node11" class="node">
<title>delay_asic</title>
<path fill="#ffffff" stroke="#000000" d="M1689.5812,-165C1689.5812,-165 1574.947,-165 1574.947,-165 1568.947,-165 1562.947,-159 1562.947,-153 1562.947,-153 1562.947,-133 1562.947,-133 1562.947,-127 1568.947,-121 1574.947,-121 1574.947,-121 1689.5812,-121 1689.5812,-121 1695.5812,-121 1701.5812,-127 1701.5812,-133 1701.5812,-133 1701.5812,-153 1701.5812,-153 1701.5812,-159 1695.5812,-165 1689.5812,-165"/>
<text text-anchor="middle" x="1632.2641" y="-152" font-family="Arial" font-size="10.00" fill="#000000">Delay ASIC</text>
<text text-anchor="middle" x="1632.2641" y="-140" font-family="Arial" font-size="10.00" fill="#000000">entry / on_enter_delay_asic</text>
<text text-anchor="middle" x="1632.2641" y="-128" font-family="Arial" font-size="10.00" fill="#000000">delay / on_delay</text>
</g>
<!-- waiting_for_lanes&#45;&gt;delay_asic -->
<g id="edge14" class="edge">
<title>waiting_for_lanes&#45;&gt;delay_asic</title>
<path fill="none" stroke="#0000ff" d="M1349.6747,-161.4638C1410.762,-157.4725 1492.6617,-152.1213 1552.5624,-148.2075"/>
<polygon fill="#0000ff" stroke="#0000ff" points="1552.9787,-151.6879 1562.7292,-147.5433 1552.5223,-144.7028 1552.9787,-151.6879"/>
<text text-anchor="middle" x="1454.7103" y="-173.5" font-family="Arial" font-size="9.00" fill="#000000">wait</text>
<text text-anchor="middle" x="1454.7103" y="-162.7" font-family="Arial" font-size="9.00" fill="#000000">[is_lane_up, !is_error]</text>
</g>
<!-- loki_power_init&#45;&gt;error -->
<g id="edge26" class="edge">
<title>loki_power_init&#45;&gt;error</title>
<path fill="none" stroke="#0000ff" d="M1186.1195,-516.377C1177.8253,-517.8568 1169.4837,-519.1163 1161.4322,-520 1069.0852,-530.1361 1044.8286,-529.3981 952.4036,-520 777.316,-502.1964 575.4,-453.0103 473.514,-426.1253"/>
<polygon fill="#0000ff" stroke="#0000ff" points="474.2362,-422.6959 463.6731,-423.5157 472.4419,-429.462 474.2362,-422.6959"/>
<text text-anchor="middle" x="742.9725" y="-509.5" font-family="Arial" font-size="9.00" fill="#000000">raise_error</text>
<text text-anchor="middle" x="742.9725" y="-498.7" font-family="Arial" font-size="9.00" fill="#000000">[is_error]</text>
</g>
<!-- loki_power_init&#45;&gt;resetting -->
<g id="edge24" class="edge">
<title>loki_power_init&#45;&gt;resetting</title>
<path fill="none" stroke="#0000ff" d="M1208.6351,-474.9427C1198.7628,-470.6109 1188.6924,-465.8855 1179.4322,-461 1171.0145,-456.559 1170.4283,-452.5065 1161.4322,-449.4 1073.2416,-418.9457 1039.7452,-462.8099 952.4036,-430 931.6244,-422.1943 911.3767,-407.7272 896.0863,-394.9548"/>
<polygon fill="#0000ff" stroke="#0000ff" points="897.9865,-391.9715 888.1297,-388.0864 893.4124,-397.2703 897.9865,-391.9715"/>
<text text-anchor="middle" x="1056.9179" y="-463.5" font-family="Arial" font-size="9.00" fill="#000000">reset</text>
<text text-anchor="middle" x="1056.9179" y="-452.7" font-family="Arial" font-size="9.00" fill="#000000">[is_timeout, !is_error]</text>
</g>
<!-- loki_power_init&#45;&gt;loki_cob_init -->
<g id="edge25" class="edge">
<title>loki_power_init&#45;&gt;loki_cob_init</title>
<path fill="none" stroke="#0000ff" d="M1343.7422,-483.6994C1404.1474,-473.5037 1487.3112,-459.4665 1548.839,-449.0813"/>
<polygon fill="#0000ff" stroke="#0000ff" points="1549.628,-452.4977 1558.906,-447.3821 1548.4629,-445.5953 1549.628,-452.4977"/>
<text text-anchor="middle" x="1454.7103" y="-492.5" font-family="Arial" font-size="9.00" fill="#000000">wait_loki</text>
<text text-anchor="middle" x="1454.7103" y="-481.7" font-family="Arial" font-size="9.00" fill="#000000">[is_loki_power_board, !is_error]</text>
</g>
<!-- loki_cob_init&#45;&gt;error -->
<g id="edge29" class="edge">
<title>loki_cob_init&#45;&gt;error</title>
<path fill="none" stroke="#0000ff" d="M1619.4571,-412.8285C1604.217,-388.8776 1576.3267,-352.0013 1540.9676,-336 1347.0309,-248.2365 1020.2988,-298.1404 804.4776,-321.4 686.2356,-334.1432 551.563,-367.6434 473.3459,-389.0457"/>
<polygon fill="#0000ff" stroke="#0000ff" points="472.3371,-385.6931 463.6254,-391.7229 474.1958,-392.4419 472.3371,-385.6931"/>
<text text-anchor="middle" x="869.4406" y="-335.5" font-family="Arial" font-size="9.00" fill="#000000">raise_error</text>
<text text-anchor="middle" x="869.4406" y="-324.7" font-family="Arial" font-size="9.00" fill="#000000">[is_error]</text>
</g>
<!-- loki_cob_init&#45;&gt;resetting -->
<g id="edge27" class="edge">
<title>loki_cob_init&#45;&gt;resetting</title>
<path fill="none" stroke="#0000ff" d="M1559.029,-434.7154C1433.8474,-433.1905 1171.0515,-425.4593 952.4036,-389 949.7619,-388.5595 947.0784,-388.0861 944.3722,-387.5868"/>
<polygon fill="#0000ff" stroke="#0000ff" points="944.9918,-384.1418 934.5088,-385.6771 943.6612,-391.0142 944.9918,-384.1418"/>
<text text-anchor="middle" x="1264.9426" y="-442.5" font-family="Arial" font-size="9.00" fill="#000000">reset</text>
<text text-anchor="middle" x="1264.9426" y="-431.7" font-family="Arial" font-size="9.00" fill="#000000">[is_timeout, !is_error]</text>
</g>
<!-- loki_cob_init&#45;&gt;loki_asic_init -->
<g id="edge28" class="edge">
<title>loki_cob_init&#45;&gt;loki_asic_init</title>
<path fill="none" stroke="#0000ff" d="M1691.6444,-457.1276C1741.2487,-475.6122 1812.018,-501.9838 1864.0714,-521.3811"/>
<polygon fill="#0000ff" stroke="#0000ff" points="1862.9711,-524.7061 1873.5638,-524.9184 1865.4155,-518.1468 1862.9711,-524.7061"/>
<text text-anchor="middle" x="1772.8167" y="-518.5" font-family="Arial" font-size="9.00" fill="#000000">wait_loki</text>
<text text-anchor="middle" x="1772.8167" y="-507.7" font-family="Arial" font-size="9.00" fill="#000000">[is_loki_cob, !is_error]</text>
</g>
<!-- loki_asic_init&#45;&gt;error -->
<g id="edge32" class="edge">
<title>loki_asic_init&#45;&gt;error</title>
<path fill="none" stroke="#0000ff" d="M1904.8349,-569.1274C1853.794,-607.1871 1740.8131,-681 1632.2641,-681 612.3404,-681 612.3404,-681 612.3404,-681 544.7225,-681 523.1587,-656.4295 481.7164,-603 464.392,-580.6645 473.2093,-568.6251 463.7164,-542 451.0352,-506.4325 433.9299,-466.6659 421.904,-439.759"/>
<polygon fill="#0000ff" stroke="#0000ff" points="425.0151,-438.1433 417.7208,-430.4593 418.6312,-441.0149 425.0151,-438.1433"/>
<text text-anchor="middle" x="1056.9179" y="-694.5" font-family="Arial" font-size="9.00" fill="#000000">raise_error</text>
<text text-anchor="middle" x="1056.9179" y="-683.7" font-family="Arial" font-size="9.00" fill="#000000">[is_error]</text>
</g>
<!-- loki_asic_init&#45;&gt;monitoring -->
<g id="edge31" class="edge">
<title>loki_asic_init&#45;&gt;monitoring</title>
<path fill="none" stroke="#0000ff" d="M1858.4481,-557.2999C1846.3096,-558.7223 1833.8545,-560.0266 1822.0728,-561 1697.4661,-571.2945 1665.9434,-568.2766 1540.9676,-572 1226.7118,-581.3627 852.4957,-587.4848 691.9292,-589.8717"/>
<polygon fill="#0000ff" stroke="#0000ff" points="691.6119,-586.3759 681.6648,-590.0235 691.7155,-593.3751 691.6119,-586.3759"/>
<text text-anchor="middle" x="1264.9426" y="-595.5" font-family="Arial" font-size="9.00" fill="#000000">wait_loki</text>
<text text-anchor="middle" x="1264.9426" y="-584.7" font-family="Arial" font-size="9.00" fill="#000000">[is_loki_asic, !is_error]</text>
</g>
<!-- loki_asic_init&#45;&gt;resetting -->
<g id="edge30" class="edge">
<title>loki_asic_init&#45;&gt;resetting</title>
<path fill="none" stroke="#0000ff" d="M1906.0833,-524.9761C1865.4763,-492.7921 1784.596,-433.538 1705.5606,-404 1440.4989,-304.9384 1094.7663,-336.9348 944.5556,-357.9056"/>
<polygon fill="#0000ff" stroke="#0000ff" points="943.9227,-354.4602 934.5144,-359.3319 944.9073,-361.3907 943.9227,-354.4602"/>
<text text-anchor="middle" x="1454.7103" y="-372.5" font-family="Arial" font-size="9.00" fill="#000000">reset</text>
<text text-anchor="middle" x="1454.7103" y="-361.7" font-family="Arial" font-size="9.00" fill="#000000">[is_timeout, !is_error]</text>
</g>
<!-- delay_asic&#45;&gt;error -->
<g id="edge34" class="edge">
<title>delay_asic&#45;&gt;error</title>
<path fill="none" stroke="#0000ff" d="M1562.6413,-134.8258C1488.8477,-126.879 1368.8502,-116 1264.9426,-116 612.3404,-116 612.3404,-116 612.3404,-116 486.6365,-116 431.4203,-299.5264 413.9347,-375.5836"/>
<polygon fill="#0000ff" stroke="#0000ff" points="410.4678,-375.0509 411.7144,-385.5721 417.301,-376.5698 410.4678,-375.0509"/>
<text text-anchor="middle" x="869.4406" y="-129.5" font-family="Arial" font-size="9.00" fill="#000000">raise_error</text>
<text text-anchor="middle" x="869.4406" y="-118.7" font-family="Arial" font-size="9.00" fill="#000000">[is_error]</text>
</g>
<!-- waiting_for_channels -->
<g id="node12" class="node">
<title>waiting_for_channels</title>
<path fill="#ffffff" stroke="#000000" d="M2013.8175,-165C2013.8175,-165 1851.8241,-165 1851.8241,-165 1845.8241,-165 1839.8241,-159 1839.8241,-153 1839.8241,-153 1839.8241,-133 1839.8241,-133 1839.8241,-127 1845.8241,-121 1851.8241,-121 1851.8241,-121 2013.8175,-121 2013.8175,-121 2019.8175,-121 2025.8175,-127 2025.8175,-133 2025.8175,-133 2025.8175,-153 2025.8175,-153 2025.8175,-159 2019.8175,-165 2013.8175,-165"/>
<text text-anchor="middle" x="1932.8208" y="-152" font-family="Arial" font-size="10.00" fill="#000000">Waiting For Channels</text>
<text text-anchor="middle" x="1932.8208" y="-140" font-family="Arial" font-size="10.00" fill="#000000">entry / on_enter_waiting_for_channels</text>
<text text-anchor="middle" x="1932.8208" y="-128" font-family="Arial" font-size="10.00" fill="#000000">wait / on_wait</text>
</g>
<!-- delay_asic&#45;&gt;waiting_for_channels -->
<g id="edge33" class="edge">
<title>delay_asic&#45;&gt;waiting_for_channels</title>
<path fill="none" stroke="#0000ff" d="M1701.5953,-143C1739.6328,-143 1787.5323,-143 1829.8561,-143"/>
<polygon fill="#0000ff" stroke="#0000ff" points="1829.9198,-146.5001 1839.9198,-143 1829.9198,-139.5001 1829.9198,-146.5001"/>
<text text-anchor="middle" x="1772.8167" y="-156.5" font-family="Arial" font-size="9.00" fill="#000000">delay</text>
<text text-anchor="middle" x="1772.8167" y="-145.7" font-family="Arial" font-size="9.00" fill="#000000">[is_delay_over, !is_error]</text>
</g>
<!-- waiting_for_channels&#45;&gt;error -->
<g id="edge18" class="edge">
<title>waiting_for_channels&#45;&gt;error</title>
<path fill="none" stroke="#0000ff" d="M1877.0228,-120.9986C1817.4059,-99.5043 1719.656,-70 1632.2641,-70 612.3404,-70 612.3404,-70 612.3404,-70 544.4936,-70 522.9488,-95.1198 481.7164,-149 428.9199,-217.9916 413.6001,-323.1807 409.1676,-375.7458"/>
<polygon fill="#0000ff" stroke="#0000ff" points="405.6691,-375.5942 408.3978,-385.8316 412.6488,-376.127 405.6691,-375.5942"/>
<text text-anchor="middle" x="1056.9179" y="-83.5" font-family="Arial" font-size="9.00" fill="#000000">raise_error</text>
<text text-anchor="middle" x="1056.9179" y="-72.7" font-family="Arial" font-size="9.00" fill="#000000">[is_error]</text>
</g>
<!-- waiting_for_channels&#45;&gt;resetting -->
<g id="edge16" class="edge">
<title>waiting_for_channels&#45;&gt;resetting</title>
<path fill="none" stroke="#0000ff" d="M1842.9472,-165.0508C1835.9044,-166.4875 1828.8849,-167.8263 1822.0728,-169 1810.0894,-171.0647 961.6439,-262.0955 952.4036,-270 930.5997,-288.652 952.0421,-309.3683 934.4036,-332 930.2483,-337.3316 925.1194,-342.0603 919.5801,-346.2118"/>
<polygon fill="#0000ff" stroke="#0000ff" points="917.5383,-343.3677 911.2364,-351.8845 921.474,-349.1565 917.5383,-343.3677"/>
<text text-anchor="middle" x="1454.7103" y="-232.5" font-family="Arial" font-size="9.00" fill="#000000">reset</text>
<text text-anchor="middle" x="1454.7103" y="-221.7" font-family="Arial" font-size="9.00" fill="#000000">[is_timeout, !is_error]</text>
</g>
<!-- delay_reactivate -->
<g id="node13" class="node">
<title>delay_reactivate</title>
<path fill="#ffffff" stroke="#000000" d="M2303.1597,-165C2303.1597,-165 2162.3969,-165 2162.3969,-165 2156.3969,-165 2150.3969,-159 2150.3969,-153 2150.3969,-153 2150.3969,-133 2150.3969,-133 2150.3969,-127 2156.3969,-121 2162.3969,-121 2162.3969,-121 2303.1597,-121 2303.1597,-121 2309.1597,-121 2315.1597,-127 2315.1597,-133 2315.1597,-133 2315.1597,-153 2315.1597,-153 2315.1597,-159 2309.1597,-165 2303.1597,-165"/>
<text text-anchor="middle" x="2232.7783" y="-152" font-family="Arial" font-size="10.00" fill="#000000">Delay Reactivation</text>
<text text-anchor="middle" x="2232.7783" y="-140" font-family="Arial" font-size="10.00" fill="#000000">entry / on_enter_delay_reactivate</text>
<text text-anchor="middle" x="2232.7783" y="-128" font-family="Arial" font-size="10.00" fill="#000000">delay / on_delay</text>
</g>
<!-- waiting_for_channels&#45;&gt;delay_reactivate -->
<g id="edge17" class="edge">
<title>waiting_for_channels&#45;&gt;delay_reactivate</title>
<path fill="none" stroke="#0000ff" d="M2025.675,-143C2062.1624,-143 2103.9531,-143 2140.3946,-143"/>
<polygon fill="#0000ff" stroke="#0000ff" points="2140.5223,-146.5001 2150.5223,-143 2140.5222,-139.5001 2140.5223,-146.5001"/>
<text text-anchor="middle" x="2088.0783" y="-156.5" font-family="Arial" font-size="9.00" fill="#000000">wait</text>
<text text-anchor="middle" x="2088.0783" y="-145.7" font-family="Arial" font-size="9.00" fill="#000000">[is_chan_up, !is_error]</text>
</g>
<!-- delay_reactivate&#45;&gt;error -->
<g id="edge36" class="edge">
<title>delay_reactivate&#45;&gt;error</title>
<path fill="none" stroke="#0000ff" d="M2201.6683,-120.7256C2149.0141,-85.2804 2037.7907,-20 1932.8208,-20 612.3404,-20 612.3404,-20 612.3404,-20 545.1739,-20 521.7678,-42.0814 481.7164,-96 448.5546,-140.6435 421.8812,-305.5666 411.7599,-375.8919"/>
<polygon fill="#0000ff" stroke="#0000ff" points="408.2731,-375.5528 410.3334,-385.9453 415.2036,-376.5362 408.2731,-375.5528"/>
<text text-anchor="middle" x="1264.9426" y="-33.5" font-family="Arial" font-size="9.00" fill="#000000">raise_error</text>
<text text-anchor="middle" x="1264.9426" y="-22.7" font-family="Arial" font-size="9.00" fill="#000000">[is_error]</text>
</g>
<!-- reactivating -->
<g id="node14" class="node">
<title>reactivating</title>
<path fill="#ffffff" stroke="#000000" d="M2580.0373,-465C2580.0373,-465 2461.6287,-465 2461.6287,-465 2455.6287,-465 2449.6287,-459 2449.6287,-453 2449.6287,-453 2449.6287,-433 2449.6287,-433 2449.6287,-427 2455.6287,-421 2461.6287,-421 2461.6287,-421 2580.0373,-421 2580.0373,-421 2586.0373,-421 2592.0373,-427 2592.0373,-433 2592.0373,-433 2592.0373,-453 2592.0373,-453 2592.0373,-459 2586.0373,-465 2580.0373,-465"/>
<text text-anchor="middle" x="2520.833" y="-452" font-family="Arial" font-size="10.00" fill="#000000">Reactivating</text>
<text text-anchor="middle" x="2520.833" y="-440" font-family="Arial" font-size="10.00" fill="#000000">entry / on_enter_reactivating</text>
<text text-anchor="middle" x="2520.833" y="-428" font-family="Arial" font-size="10.00" fill="#000000">wait / on_wait</text>
</g>
<!-- delay_reactivate&#45;&gt;reactivating -->
<g id="edge35" class="edge">
<title>delay_reactivate&#45;&gt;reactivating</title>
<path fill="none" stroke="#0000ff" d="M2315.2008,-158.5378C2354.6624,-169.6673 2400.047,-188.3751 2431.481,-219.4 2485.4199,-272.6369 2507.7732,-362.6067 2516.2264,-410.586"/>
<polygon fill="#0000ff" stroke="#0000ff" points="2512.8184,-411.4282 2517.9135,-420.7174 2519.7233,-410.2783 2512.8184,-411.4282"/>
<text text-anchor="middle" x="2382.2249" y="-233.5" font-family="Arial" font-size="9.00" fill="#000000">delay</text>
<text text-anchor="middle" x="2382.2249" y="-222.7" font-family="Arial" font-size="9.00" fill="#000000">[is_delay_over, !is_error]</text>
</g>
<!-- reactivating&#45;&gt;error -->
<g id="edge21" class="edge">
<title>reactivating&#45;&gt;error</title>
<path fill="none" stroke="#0000ff" d="M2511.0259,-465.1197C2480.3193,-530.6134 2379.2633,-719 2232.7783,-719 612.3404,-719 612.3404,-719 612.3404,-719 544.7225,-719 517.302,-698.4964 481.7164,-641 458.1807,-602.9728 476.4594,-584.8674 463.7164,-542 452.9568,-505.8048 435.5269,-466.1443 422.8994,-439.4338"/>
<polygon fill="#0000ff" stroke="#0000ff" points="425.9591,-437.7193 418.4857,-430.2094 419.6447,-440.7407 425.9591,-437.7193"/>
<text text-anchor="middle" x="1454.7103" y="-732.5" font-family="Arial" font-size="9.00" fill="#000000">raise_error</text>
<text text-anchor="middle" x="1454.7103" y="-721.7" font-family="Arial" font-size="9.00" fill="#000000">[is_error]</text>
</g>
<!-- reactivating&#45;&gt;monitoring -->
<g id="edge20" class="edge">
<title>reactivating&#45;&gt;monitoring</title>
<path fill="none" stroke="#0000ff" d="M2503.2796,-465.3043C2461.9323,-515.1036 2352.8116,-631 2232.7783,-631 1772.8167,-631 1772.8167,-631 1772.8167,-631 1295.6217,-631 1174.8729,-645.2888 699.4674,-604 696.9344,-603.78 694.3629,-603.5338 691.7686,-603.2656"/>
<polygon fill="#0000ff" stroke="#0000ff" points="692.011,-599.7709 681.6826,-602.1318 691.229,-606.7271 692.011,-599.7709"/>
<text text-anchor="middle" x="1632.2641" y="-644.5" font-family="Arial" font-size="9.00" fill="#000000">wait</text>
<text text-anchor="middle" x="1632.2641" y="-633.7" font-family="Arial" font-size="9.00" fill="#000000">[is_running, !is_error]</text>
</g>
<!-- reactivating&#45;&gt;resetting -->
<g id="edge19" class="edge">
<title>reactivating&#45;&gt;resetting</title>
<path fill="none" stroke="#0000ff" d="M2503.2796,-420.6957C2461.9323,-370.8964 2352.8116,-255 2232.7783,-255 1454.7103,-255 1454.7103,-255 1454.7103,-255 1228.6492,-255 1161.3421,-248.6964 952.4036,-335 945.278,-337.9433 943.6533,-341.4623 935.1907,-346.8867"/>
<polygon fill="#0000ff" stroke="#0000ff" points="933.2173,-343.9803 926.2028,-351.9205 936.6379,-350.0876 933.2173,-343.9803"/>
<text text-anchor="middle" x="1772.8167" y="-268.5" font-family="Arial" font-size="9.00" fill="#000000">reset</text>
<text text-anchor="middle" x="1772.8167" y="-257.7" font-family="Arial" font-size="9.00" fill="#000000">[is_timeout, !is_error]</text>
</g>
</g>
</svg>
